<svg width="196" height="26" viewBox="0 0 196 26" fill="none" xmlns="http://www.w3.org/2000/svg">
<path d="M94.8876 12.1826C94.8876 12.6427 94.5147 13.0156 94.0546 13.0156C93.5946 13.0156 93.2216 12.6427 93.2216 12.1826C93.2216 11.7226 93.5946 11.3496 94.0546 11.3496C94.5147 11.3496 94.8876 11.7226 94.8876 12.1826Z" fill="#FE4E4E"/>
<path fill-rule="evenodd" clip-rule="evenodd" d="M94.8876 12.1826C94.8876 12.6427 94.5147 13.0156 94.0546 13.0156C93.5946 13.0156 93.2216 12.6427 93.2216 12.1826C93.2216 11.7226 93.5946 11.3496 94.0546 11.3496C94.5147 11.3496 94.8876 11.7226 94.8876 12.1826Z" fill="#FE4E4E"/>
<path fill-rule="evenodd" clip-rule="evenodd" d="M94.8876 12.1826C94.8876 12.6427 94.5147 13.0156 94.0546 13.0156C93.5946 13.0156 93.2216 12.6427 93.2216 12.1826C93.2216 11.7226 93.5946 11.3496 94.0546 11.3496C94.5147 11.3496 94.8876 11.7226 94.8876 12.1826Z" fill="#FE4E4E"/>
<path fill-rule="evenodd" clip-rule="evenodd" d="M99.5212 16.7288C98.9521 17.7921 98.1754 18.6042 97.1909 19.1652C96.2109 19.7217 95.109 20 93.8852 20C92.6523 20 91.5459 19.7195 90.566 19.1584C89.586 18.5974 88.8115 17.7853 88.2425 16.722C87.6735 15.6588 87.3889 14.3716 87.3889 12.8604C87.3889 11.3447 87.6735 10.0552 88.2425 8.99196C88.7249 8.09052 89.355 7.3712 90.1328 6.834C89.9745 6.63938 89.8233 6.44096 89.6855 6.24088C89.295 5.67397 89.2072 4.9788 89.6227 4.56005C89.9692 4.21083 90.6999 4.39471 91.2322 4.83343C91.2764 4.86982 91.5405 5.17024 91.4086 4.9788C91.2933 4.81143 91.1657 4.62447 91.0902 4.43666C90.9255 4.02676 90.8435 3.74887 90.7995 3.29198C90.7579 2.8604 90.8643 2.51879 91.1871 2.31174C91.51 2.10468 91.8792 2.32616 92.0793 2.43796C92.4195 2.62802 92.6114 2.94426 92.8668 3.21453C93.1022 3.46364 93.4268 4.43855 93.3939 4.09738C93.3327 3.46214 93.2134 2.85646 93.2075 2.21353C93.2024 1.65889 93.2619 1.49511 93.3939 1.09955C93.552 0.625922 94.0268 0.0659057 94.6217 0.00857859C95.4942 -0.0755112 95.8851 0.461903 95.9828 1.47543C96.0383 2.05161 95.977 2.62958 95.906 3.2058C95.876 3.44915 95.615 4.6362 95.8163 4.8021C95.9034 4.87394 96.4748 3.72188 97.223 3.81407C98.0855 3.92034 98.2235 5.07506 97.9754 5.66546C97.8922 5.86351 97.6867 6.28625 97.4601 6.72409C98.318 7.2716 99.005 8.02755 99.5212 8.99196C99.8401 9.58327 100.07 10.2445 100.212 10.9758C100.94 11.2951 102.218 11.8996 102.218 12.2093C102.218 12.4977 101.111 13.0414 100.37 13.3728C100.312 14.6688 100.029 15.7875 99.5212 16.7288ZM96.9674 10.3765C97.2609 11.0506 97.4077 11.8786 97.4077 12.8604C97.4077 13.8422 97.2609 14.6702 96.9674 15.3443C96.6783 16.0185 96.2696 16.5297 95.7413 16.8781C95.2129 17.2265 94.5942 17.4007 93.8852 17.4007C93.1762 17.4007 92.5575 17.2265 92.0291 16.8781C91.5008 16.5297 91.0898 16.0185 90.7963 15.3443C90.5072 14.6702 90.3627 13.8422 90.3627 12.8604C90.3627 11.8786 90.5072 11.0506 90.7963 10.3765C91.0898 9.7023 91.5008 9.19104 92.0291 8.84266C92.5575 8.49427 93.1762 8.32008 93.8852 8.32008C94.5942 8.32008 95.2129 8.49427 95.7413 8.84266C96.2696 9.19104 96.6783 9.7023 96.9674 10.3765Z" fill="#FE4E4E"/>
<path d="M0 5.768H3.6173L7.43783 15.1065H7.6004L11.4209 5.768H15.0382V19.6672H12.1932V10.6205H12.078L8.48779 19.5993H6.55044L2.96023 10.5866H2.84507V19.6672H0V5.768Z" fill="black"/>
<path d="M30.2035 12.7176C30.2035 14.2333 29.9167 15.5228 29.3432 16.586C28.7742 17.6493 27.9974 18.4614 27.0129 19.0224C26.033 19.579 24.9311 19.8572 23.7072 19.8572C22.4744 19.8572 21.3679 19.5767 20.388 19.0157C19.408 18.4546 18.6335 17.6425 18.0645 16.5792C17.4955 15.516 17.211 14.2288 17.211 12.7176C17.211 11.2019 17.4955 9.91242 18.0645 8.84917C18.6335 7.78592 19.408 6.97604 20.388 6.41953C21.3679 5.85849 22.4744 5.57798 23.7072 5.57798C24.9311 5.57798 26.033 5.85849 27.0129 6.41953C27.9974 6.97604 28.7742 7.78592 29.3432 8.84917C29.9167 9.91242 30.2035 11.2019 30.2035 12.7176ZM27.2297 12.7176C27.2297 11.7358 27.0829 10.9078 26.7894 10.2337C26.5004 9.55951 26.0917 9.04825 25.5633 8.69986C25.0349 8.35148 24.4162 8.17729 23.7072 8.17729C22.9982 8.17729 22.3795 8.35148 21.8512 8.69986C21.3228 9.04825 20.9118 9.55951 20.6183 10.2337C20.3293 10.9078 20.1848 11.7358 20.1848 12.7176C20.1848 13.6994 20.3293 14.5274 20.6183 15.2015C20.9118 15.8757 21.3228 16.3869 21.8512 16.7353C22.3795 17.0837 22.9982 17.2579 23.7072 17.2579C24.4162 17.2579 25.0349 17.0837 25.5633 16.7353C26.0917 16.3869 26.5004 15.8757 26.7894 15.2015C27.0829 14.5274 27.2297 13.6994 27.2297 12.7176Z" fill="black"/>
<path d="M44.6168 10.6341H41.6498C41.5956 10.2495 41.485 9.9079 41.3179 9.60928C41.1508 9.30614 40.9363 9.04825 40.6744 8.8356C40.4124 8.62295 40.1099 8.46006 39.7666 8.34695C39.4279 8.23384 39.0599 8.17729 38.6625 8.17729C37.9444 8.17729 37.319 8.356 36.7861 8.71344C36.2532 9.06634 35.84 9.58213 35.5465 10.2608C35.2529 10.935 35.1061 11.7539 35.1061 12.7176C35.1061 13.7085 35.2529 14.541 35.5465 15.2151C35.8445 15.8892 36.26 16.3982 36.7929 16.7421C37.3257 17.086 37.9422 17.2579 38.6422 17.2579C39.035 17.2579 39.3986 17.2059 39.7328 17.1018C40.0715 16.9977 40.3718 16.8462 40.6337 16.6471C40.8956 16.4435 41.1124 16.1969 41.284 15.9073C41.4601 15.6178 41.5821 15.2875 41.6498 14.9165L44.6168 14.9301C44.54 15.568 44.3481 16.1833 44.041 16.776C43.7384 17.3642 43.3298 17.8913 42.8149 18.3573C42.3046 18.8188 41.695 19.1853 40.986 19.4568C40.2815 19.7237 39.4844 19.8572 38.5947 19.8572C37.3574 19.8572 36.2509 19.5767 35.2755 19.0157C34.3046 18.4546 33.5368 17.6425 32.9723 16.5792C32.4124 15.516 32.1324 14.2288 32.1324 12.7176C32.1324 11.2019 32.4169 9.91242 32.9859 8.84917C33.5549 7.78592 34.3271 6.97604 35.3026 6.41953C36.278 5.85849 37.3754 5.57798 38.5947 5.57798C39.3986 5.57798 40.1437 5.69109 40.8302 5.91731C41.5211 6.14354 42.133 6.47382 42.6659 6.90817C43.1988 7.338 43.6323 7.8651 43.9665 8.48947C44.3052 9.11385 44.522 9.82872 44.6168 10.6341Z" fill="black"/>
<path d="M46.7201 19.6672V5.768H49.6533V11.8964H49.8362L54.8286 5.768H58.3443L53.196 11.9914L58.4052 19.6672H54.8963L51.0961 13.9528L49.6533 15.7173V19.6672H46.7201Z" fill="black"/>
<path d="M79.0591 19.6672H74.1412V5.768H79.0997C80.4952 5.768 81.6964 6.04626 82.7035 6.60277C83.7106 7.15476 84.4851 7.9488 85.027 8.9849C85.5734 10.021 85.8466 11.2607 85.8466 12.704C85.8466 14.1518 85.5734 15.3961 85.027 16.4367C84.4851 17.4773 83.706 18.2759 82.6899 18.8324C81.6784 19.3889 80.4681 19.6672 79.0591 19.6672ZM77.0743 17.1493H78.9372C79.8042 17.1493 80.5336 16.9955 81.1252 16.6878C81.7213 16.3756 82.1684 15.8938 82.4664 15.2422C82.769 14.5862 82.9203 13.7401 82.9203 12.704C82.9203 11.677 82.769 10.8377 82.4664 10.1862C82.1684 9.53463 81.7235 9.05503 81.1319 8.74737C80.5403 8.4397 79.811 8.28587 78.9439 8.28587H77.0743V17.1493Z" fill="black"/>
<path d="M115.689 12.7176C115.689 14.2333 115.403 15.5228 114.829 16.586C114.26 17.6493 113.483 18.4614 112.499 19.0224C111.519 19.579 110.417 19.8572 109.193 19.8572C107.96 19.8572 106.854 19.5767 105.874 19.0157C104.894 18.4546 104.119 17.6425 103.55 16.5792C102.981 15.516 102.697 14.2288 102.697 12.7176C102.697 11.2019 102.981 9.91242 103.55 8.84917C104.119 7.78592 104.894 6.97604 105.874 6.41953C106.854 5.85849 107.96 5.57798 109.193 5.57798C110.417 5.57798 111.519 5.85849 112.499 6.41953C113.483 6.97604 114.26 7.78592 114.829 8.84917C115.403 9.91242 115.689 11.2019 115.689 12.7176ZM112.716 12.7176C112.716 11.7358 112.569 10.9078 112.275 10.2337C111.986 9.55951 111.578 9.04825 111.049 8.69986C110.521 8.35148 109.902 8.17729 109.193 8.17729C108.484 8.17729 107.865 8.35148 107.337 8.69986C106.809 9.04825 106.398 9.55951 106.104 10.2337C105.815 10.9078 105.671 11.7358 105.671 12.7176C105.671 13.6994 105.815 14.5274 106.104 15.2015C106.398 15.8757 106.809 16.3869 107.337 16.7353C107.865 17.0837 108.484 17.2579 109.193 17.2579C109.902 17.2579 110.521 17.0837 111.049 16.7353C111.578 16.3869 111.986 15.8757 112.275 15.2015C112.569 14.5274 112.716 13.6994 112.716 12.7176Z" fill="black"/>
<path d="M122.78 19.6672H117.862V5.768H122.821C124.216 5.768 125.417 6.04626 126.424 6.60277C127.432 7.15476 128.206 7.9488 128.748 8.9849C129.294 10.021 129.568 11.2607 129.568 12.704C129.568 14.1518 129.294 15.3961 128.748 16.4367C128.206 17.4773 127.427 18.2759 126.411 18.8324C125.399 19.3889 124.189 19.6672 122.78 19.6672ZM120.795 17.1493H122.658C123.525 17.1493 124.255 16.9955 124.846 16.6878C125.442 16.3756 125.889 15.8938 126.187 15.2422C126.49 14.5862 126.641 13.7401 126.641 12.704C126.641 11.677 126.49 10.8377 126.187 10.1862C125.889 9.53463 125.444 9.05503 124.853 8.74737C124.261 8.4397 123.532 8.28587 122.665 8.28587H120.795V17.1493Z" fill="black"/>
<path d="M131.74 19.6672V5.768H134.673V17.2443H140.621V19.6672H131.74Z" fill="black"/>
<path d="M142.563 19.6672V5.768H151.912V8.19086H145.497V11.5028H151.431V13.9256H145.497V17.2443H151.939V19.6672H142.563Z" fill="black"/>
<path d="M159.161 19.6672H154.243V5.768H159.202C160.597 5.768 161.799 6.04626 162.806 6.60277C163.813 7.15476 164.587 7.9488 165.129 8.9849C165.676 10.021 165.949 11.2607 165.949 12.704C165.949 14.1518 165.676 15.3961 165.129 16.4367C164.587 17.4773 163.808 18.2759 162.792 18.8324C161.781 19.3889 160.57 19.6672 159.161 19.6672ZM157.177 17.1493H159.039C159.907 17.1493 160.636 16.9955 161.227 16.6878C161.824 16.3756 162.271 15.8938 162.569 15.2422C162.871 14.5862 163.023 13.7401 163.023 12.704C163.023 11.677 162.871 10.8377 162.569 10.1862C162.271 9.53463 161.826 9.05503 161.234 8.74737C160.643 8.4397 159.913 8.28587 159.046 8.28587H157.177V17.1493Z" fill="black"/>
<path d="M180.87 12.7176C180.87 14.2333 180.584 15.5228 180.01 16.586C179.441 17.6493 178.664 18.4614 177.68 19.0224C176.7 19.579 175.598 19.8572 174.374 19.8572C173.141 19.8572 172.035 19.5767 171.055 19.0157C170.075 18.4546 169.3 17.6425 168.731 16.5792C168.162 15.516 167.878 14.2288 167.878 12.7176C167.878 11.2019 168.162 9.91242 168.731 8.84917C169.3 7.78592 170.075 6.97604 171.055 6.41953C172.035 5.85849 173.141 5.57798 174.374 5.57798C175.598 5.57798 176.7 5.85849 177.68 6.41953C178.664 6.97604 179.441 7.78592 180.01 8.84917C180.584 9.91242 180.87 11.2019 180.87 12.7176ZM177.897 12.7176C177.897 11.7358 177.75 10.9078 177.456 10.2337C177.167 9.55951 176.758 9.04825 176.23 8.69986C175.702 8.35148 175.083 8.17729 174.374 8.17729C173.665 8.17729 173.046 8.35148 172.518 8.69986C171.99 9.04825 171.579 9.55951 171.285 10.2337C170.996 10.9078 170.852 11.7358 170.852 12.7176C170.852 13.6994 170.996 14.5274 171.285 15.2015C171.579 15.8757 171.99 16.3869 172.518 16.7353C173.046 17.0837 173.665 17.2579 174.374 17.2579C175.083 17.2579 175.702 17.0837 176.23 16.7353C176.758 16.3869 177.167 15.8757 177.456 15.2015C177.75 14.5274 177.897 13.6994 177.897 12.7176Z" fill="black"/>
<path d="M195.909 12.7176C195.909 14.2333 195.623 15.5228 195.049 16.586C194.48 17.6493 193.703 18.4614 192.719 19.0224C191.739 19.579 190.637 19.8572 189.413 19.8572C188.18 19.8572 187.074 19.5767 186.094 19.0157C185.114 18.4546 184.34 17.6425 183.771 16.5792C183.201 15.516 182.917 14.2288 182.917 12.7176C182.917 11.2019 183.201 9.91242 183.771 8.84917C184.34 7.78592 185.114 6.97604 186.094 6.41953C187.074 5.85849 188.18 5.57798 189.413 5.57798C190.637 5.57798 191.739 5.85849 192.719 6.41953C193.703 6.97604 194.48 7.78592 195.049 8.84917C195.623 9.91242 195.909 11.2019 195.909 12.7176ZM192.936 12.7176C192.936 11.7358 192.789 10.9078 192.495 10.2337C192.206 9.55951 191.798 9.04825 191.269 8.69986C190.741 8.35148 190.122 8.17729 189.413 8.17729C188.704 8.17729 188.086 8.35148 187.557 8.69986C187.029 9.04825 186.618 9.55951 186.324 10.2337C186.035 10.9078 185.891 11.7358 185.891 12.7176C185.891 13.6994 186.035 14.5274 186.324 15.2015C186.618 15.8757 187.029 16.3869 187.557 16.7353C188.086 17.0837 188.704 17.2579 189.413 17.2579C190.122 17.2579 190.741 17.0837 191.269 16.7353C191.798 16.3869 192.206 15.8757 192.495 15.2015C192.789 14.5274 192.936 13.6994 192.936 12.7176Z" fill="black"/>
<path fill-rule="evenodd" clip-rule="evenodd" d="M62.263 19.6672H59.1199L63.9091 5.768H67.689L72.4714 19.6672H69.3283L68.3012 16.4978H63.2921L62.263 19.6672ZM65.7448 8.94418H65.8532L67.5578 14.2039H64.037L65.7448 8.94418Z" fill="black"/>
</svg>
