<svg width="15" height="20" viewBox="0 0 15 20" fill="none" xmlns="http://www.w3.org/2000/svg">
<path d="M7.49865 12.1826C7.49865 12.6427 7.1257 13.0156 6.66566 13.0156C6.20561 13.0156 5.83267 12.6427 5.83267 12.1826C5.83267 11.7226 6.20561 11.3496 6.66566 11.3496C7.1257 11.3496 7.49865 11.7226 7.49865 12.1826Z" fill="#FE4E4E"/>
<path fill-rule="evenodd" clip-rule="evenodd" d="M7.49865 12.1826C7.49865 12.6427 7.1257 13.0156 6.66566 13.0156C6.20561 13.0156 5.83267 12.6427 5.83267 12.1826C5.83267 11.7226 6.20561 11.3496 6.66566 11.3496C7.1257 11.3496 7.49865 11.7226 7.49865 12.1826Z" fill="#FE4E4E"/>
<path fill-rule="evenodd" clip-rule="evenodd" d="M7.49865 12.1826C7.49865 12.6427 7.1257 13.0156 6.66566 13.0156C6.20561 13.0156 5.83267 12.6427 5.83267 12.1826C5.83267 11.7226 6.20561 11.3496 6.66566 11.3496C7.1257 11.3496 7.49865 11.7226 7.49865 12.1826Z" fill="#FE4E4E"/>
<path fill-rule="evenodd" clip-rule="evenodd" d="M12.1322 16.7288C11.5632 17.7921 10.7864 18.6042 9.80196 19.1652C8.82199 19.7217 7.72009 20 6.49625 20C5.26339 20 4.15698 19.7195 3.17701 19.1584C2.19704 18.5974 1.42255 17.7853 0.853539 16.722C0.284524 15.6588 0 14.3716 0 12.8604C0 11.3447 0.284524 10.0552 0.853539 8.99196C1.33596 8.09052 1.96607 7.3712 2.74388 6.834C2.58551 6.63938 2.43434 6.44096 2.29652 6.24088C1.90603 5.67396 1.8183 4.9788 2.23376 4.56005C2.58024 4.21083 3.31097 4.39471 3.84326 4.83343C3.88742 4.86982 4.1515 5.17024 4.01964 4.9788C3.90435 4.81143 3.77676 4.62447 3.70128 4.43666C3.53655 4.02676 3.45458 3.74887 3.41055 3.29198C3.36896 2.8604 3.47537 2.51879 3.7982 2.31174C4.12104 2.10468 4.49027 2.32615 4.69039 2.43796C5.0306 2.62802 5.22246 2.94426 5.47787 3.21453C5.71327 3.46364 6.03785 4.43855 6.00497 4.09738C5.94375 3.46214 5.82442 2.85646 5.81852 2.21353C5.81343 1.65889 5.87294 1.49511 6.00497 1.09955C6.16305 0.625922 6.63788 0.0659057 7.23274 0.00857859C8.1053 -0.0755112 8.49615 0.461903 8.59383 1.47543C8.64935 2.05161 8.58803 2.62958 8.51703 3.2058C8.48705 3.44915 8.22602 4.6362 8.42731 4.8021C8.51447 4.87394 9.08585 3.72188 9.83405 3.81407C10.6966 3.92034 10.8346 5.07506 10.5865 5.66546C10.5032 5.86351 10.2978 6.28625 10.0711 6.72409C10.9291 7.2716 11.6161 8.02755 12.1322 8.99196C12.4512 9.58327 12.6814 10.2445 12.823 10.9758C13.5512 11.2951 14.8289 11.8996 14.8289 12.2093C14.8289 12.4977 13.7216 13.0414 12.9812 13.3728C12.923 14.6688 12.64 15.7875 12.1322 16.7288ZM9.57841 10.3764C9.87195 11.0506 10.0187 11.8786 10.0187 12.8604C10.0187 13.8422 9.87195 14.6702 9.57841 15.3443C9.28939 16.0185 8.8807 16.5297 8.35233 16.8781C7.82396 17.2265 7.20526 17.4007 6.49625 17.4007C5.78725 17.4007 5.16855 17.2265 4.64018 16.8781C4.11181 16.5297 3.70086 16.0185 3.40732 15.3443C3.1183 14.6702 2.97378 13.8422 2.97378 12.8604C2.97378 11.8786 3.1183 11.0506 3.40732 10.3764C3.70086 9.7023 4.11181 9.19104 4.64018 8.84265C5.16855 8.49427 5.78725 8.32008 6.49625 8.32008C7.20526 8.32008 7.82396 8.49427 8.35233 8.84265C8.8807 9.19104 9.28939 9.7023 9.57841 10.3764Z" fill="#FE4E4E"/>
</svg>
