<svg width="17" height="14" viewBox="0 0 17 14" fill="none" xmlns="http://www.w3.org/2000/svg">
<path d="M15.763 1.81351V5.70343H11.873" stroke="#FE4E4E" stroke-width="2" stroke-linecap="round" stroke-linejoin="round"/>
<path d="M1.5 12.1866V8.29664H5.38991" stroke="#FE4E4E" stroke-width="2" stroke-linecap="round" stroke-linejoin="round"/>
<path d="M3.12728 5.05504C3.45609 4.12586 4.01491 3.29512 4.75162 2.64033C5.48833 1.98553 6.3789 1.52804 7.34024 1.31052C8.30158 1.09301 9.30235 1.12256 10.2492 1.39643C11.196 1.6703 12.058 2.17956 12.7548 2.87669L15.763 5.70336M1.5 8.29663L4.5082 11.1233C5.20498 11.8204 6.067 12.3297 7.01383 12.6036C7.96065 12.8774 8.96143 12.907 9.92277 12.6895C10.8841 12.472 11.7747 12.0145 12.5114 11.3597C13.2481 10.7049 13.8069 9.87413 14.1357 8.94495" stroke="#FE4E4E" stroke-width="2" stroke-linecap="round" stroke-linejoin="round"/>
</svg>
